<svg xmlns="http://www.w3.org/2000/svg" viewBox="0 0 1600 1200" role="img" aria-label="Donate background">
  <defs>
    <linearGradient id="bg" x1="0" y1="0" x2="1" y2="1">
      <stop offset="0%" stop-color="#f6f8fd" />
      <stop offset="100%" stop-color="#e8f1fb" />
    </linearGradient>
    <linearGradient id="accent" x1="0" y1="0" x2="1" y2="1">
      <stop offset="0%" stop-color="#ef4f92" />
      <stop offset="100%" stop-color="#d61f6c" />
    </linearGradient>
  </defs>

  <rect width="1600" height="1200" fill="url(#bg)" />

  <g opacity="0.18" fill="#ffffff">
    <circle cx="270" cy="170" r="140" />
    <circle cx="1410" cy="150" r="110" />
    <circle cx="1450" cy="520" r="180" />
  </g>

  <g>
    <circle cx="800" cy="620" r="290" fill="url(#accent)" opacity="0.92" />
    <circle cx="800" cy="315" r="165" fill="#f48bc2" opacity="0.86" />
    <circle cx="460" cy="780" r="190" fill="#f071a5" opacity="0.84" />
    <circle cx="1140" cy="780" r="190" fill="#f29aba" opacity="0.84" />
  </g>

  <polygon points="800,350 560,760 1040,760" fill="none" stroke="#fff" stroke-width="8" opacity="0.75" />

  <g fill="#ffffff" font-family="Outfit, Arial, sans-serif" font-weight="800" text-anchor="middle">
    <text x="800" y="325" font-size="70">SHARE</text>
    <text x="800" y="640" font-size="96">DONATIONS</text>
    <text x="460" y="800" font-size="66">DONATE</text>
    <text x="1140" y="800" font-size="66">HOPE</text>
  </g>

  <g fill="#f3c0a9" opacity="0.55">
    <rect x="0" y="935" width="1600" height="265" />
  </g>

  <g fill="#efb295" opacity="0.78">
    <rect x="38" y="860" width="26" height="200" rx="12" />
    <rect x="86" y="830" width="30" height="230" rx="12" />
    <rect x="140" y="875" width="24" height="185" rx="12" />
    <rect x="198" y="835" width="31" height="225" rx="12" />
    <rect x="260" y="880" width="24" height="180" rx="12" />
    <rect x="322" y="845" width="30" height="215" rx="12" />
    <rect x="388" y="875" width="24" height="185" rx="12" />
    <rect x="452" y="840" width="30" height="220" rx="12" />
    <rect x="518" y="878" width="24" height="182" rx="12" />
    <rect x="582" y="838" width="31" height="222" rx="12" />
    <rect x="650" y="875" width="24" height="185" rx="12" />
    <rect x="716" y="842" width="30" height="218" rx="12" />
    <rect x="782" y="878" width="24" height="182" rx="12" />
    <rect x="848" y="842" width="30" height="218" rx="12" />
    <rect x="914" y="875" width="24" height="185" rx="12" />
    <rect x="980" y="838" width="31" height="222" rx="12" />
    <rect x="1046" y="878" width="24" height="182" rx="12" />
    <rect x="1112" y="840" width="30" height="220" rx="12" />
    <rect x="1178" y="875" width="24" height="185" rx="12" />
    <rect x="1244" y="845" width="30" height="215" rx="12" />
    <rect x="1308" y="880" width="24" height="180" rx="12" />
    <rect x="1372" y="835" width="31" height="225" rx="12" />
    <rect x="1434" y="875" width="24" height="185" rx="12" />
    <rect x="1490" y="830" width="30" height="230" rx="12" />
    <rect x="1538" y="860" width="26" height="200" rx="12" />
  </g>
</svg>
